<svg width="12" height="10" viewBox="0 0 12 10" fill="none" xmlns="http://www.w3.org/2000/svg">
<path fill-rule="evenodd" clip-rule="evenodd" d="M2 0.5C1.46957 0.5 0.960859 0.658035 0.585787 0.93934C0.210714 1.22064 0 1.60218 0 2V8C0 8.39782 0.210714 8.77936 0.585787 9.06066C0.960859 9.34196 1.46957 9.5 2 9.5H10C10.5304 9.5 11.0391 9.34196 11.4142 9.06066C11.7893 8.77936 12 8.39782 12 8V2C12 1.60218 11.7893 1.22064 11.4142 0.93934C11.0391 0.658035 10.5304 0.5 10 0.5H2ZM10 1.5H2C1.82319 1.5 1.65362 1.55268 1.5286 1.64645C1.40357 1.74021 1.33333 1.86739 1.33333 2V8C1.33333 8.13261 1.40357 8.25979 1.5286 8.35355C1.65362 8.44732 1.82319 8.5 2 8.5H10C10.1768 8.5 10.3464 8.44732 10.4714 8.35355C10.5964 8.25979 10.6667 8.13261 10.6667 8V2C10.6667 1.86739 10.5964 1.74021 10.4714 1.64645C10.3464 1.55268 10.1768 1.5 10 1.5Z" fill="#A7A7A7"/>
</svg>
