<svg width="12" height="12" viewBox="0 0 12 12" fill="none" xmlns="http://www.w3.org/2000/svg">
<path d="M6.00001 11.25L1.78201 7.51912C1.7234 7.4631 1.66539 7.40673 1.60801 7.35C0.887496 6.63817 0.498259 5.76871 0.500006 4.875C0.500006 3.78098 1.07947 2.73177 2.11092 1.95818C3.14237 1.1846 4.54132 0.75 6.00001 0.75C7.4587 0.75 8.85764 1.1846 9.88909 1.95818C10.9205 2.73177 11.5 3.78098 11.5 4.875C11.5018 5.7683 11.1127 6.63737 10.3925 7.34888L10.392 7.35C10.392 7.35 10.242 7.49775 10.2195 7.51763L6.00001 11.25ZM2.40601 6.89813C2.40701 6.89813 2.52301 7.01362 2.54951 7.03837L6.00001 10.0905L9.45501 7.03425C9.47701 7.01362 9.59401 6.89738 9.59451 6.897C10.1831 6.31542 10.5012 5.60514 10.5 4.875C10.5 3.97989 10.0259 3.12145 9.18199 2.48851C8.33807 1.85558 7.19348 1.5 6.00001 1.5C4.80653 1.5 3.66194 1.85558 2.81803 2.48851C1.97411 3.12145 1.50001 3.97989 1.50001 4.875C1.49896 5.60559 1.81739 6.31628 2.40651 6.89813H2.40601Z" fill="#A7A7A7"/>
</svg>
